<?xml version="1.0" standalone="no"?>
<!DOCTYPE svg PUBLIC "-//W3C//DTD SVG 20010904//EN"
 "http://www.w3.org/TR/2001/REC-SVG-20010904/DTD/svg10.dtd">
<svg version="1.0" xmlns="http://www.w3.org/2000/svg"
 width="700.000000pt" height="700.000000pt" viewBox="0 0 700.000000 700.000000"
 preserveAspectRatio="xMidYMid meet">
<metadata>
Created by potrace 1.14, written by Peter Selinger 2001-2017
</metadata>
<g transform="translate(0.000000,700.000000) scale(0.100000,-0.100000)"
fill="#000000" stroke="none">
<path d="M3278 6995 c-2 -1 -42 -5 -89 -9 -47 -4 -95 -8 -105 -10 -10 -2 -45
-7 -78 -11 -67 -8 -105 -14 -126 -20 -8 -3 -32 -7 -54 -11 -156 -24 -500 -126
-643 -190 -17 -8 -34 -14 -38 -14 -14 0 -324 -156 -405 -203 -388 -229 -730
-529 -1008 -886 -72 -93 -157 -211 -187 -263 -5 -9 -38 -63 -71 -120 -183
-307 -330 -688 -399 -1033 -8 -38 -16 -79 -18 -90 -3 -11 -8 -40 -12 -65 -3
-25 -9 -58 -11 -74 -3 -16 -7 -50 -9 -75 -3 -25 -8 -82 -12 -126 -10 -103 -10
-474 0 -585 14 -158 18 -195 38 -310 99 -572 334 -1098 700 -1565 155 -198
348 -393 554 -560 84 -68 329 -245 340 -245 3 0 30 -16 61 -36 216 -138 644
-318 904 -380 8 -2 44 -10 80 -19 86 -21 227 -48 319 -61 25 -3 57 -7 70 -10
168 -26 631 -25 841 1 35 4 181 26 205 31 11 2 36 7 55 10 327 58 749 216
1065 399 871 504 1485 1357 1683 2340 32 158 37 190 57 375 11 105 12 574 2
640 -3 14 -8 56 -12 94 -7 68 -9 86 -20 144 -3 15 -8 43 -11 62 -29 183 -106
453 -191 670 -50 127 -63 146 -111 167 -48 20 -96 8 -132 -33 -47 -54 -46 -64
25 -249 94 -246 163 -515 190 -740 4 -27 8 -60 10 -73 28 -174 23 -576 -10
-807 -39 -269 -134 -614 -227 -825 -104 -235 -294 -572 -330 -588 -5 -2 -8 -8
-8 -13 0 -11 -163 -221 -224 -289 -152 -169 -392 -383 -576 -512 -173 -121
-441 -266 -635 -343 -38 -15 -79 -31 -90 -36 -60 -25 -322 -104 -385 -115 -14
-3 -41 -9 -60 -14 -19 -5 -53 -12 -75 -15 -22 -4 -47 -8 -55 -10 -25 -7 -154
-24 -227 -30 -37 -3 -84 -8 -103 -11 -40 -6 -435 -6 -465 0 -11 2 -56 7 -100
10 -44 4 -87 9 -95 11 -8 2 -35 6 -60 9 -174 23 -557 122 -675 176 -11 5 -65
28 -120 51 -527 219 -1026 622 -1365 1099 -194 273 -345 571 -444 875 -51 159
-97 344 -111 450 -4 28 -9 52 -10 55 -2 3 -7 33 -10 65 -4 33 -9 74 -11 90
-25 188 -22 558 6 755 5 41 13 93 16 115 3 22 12 74 20 115 9 41 18 87 20 103
3 15 21 82 40 150 98 344 258 684 460 975 445 640 1121 1109 1874 1297 74 19
163 39 197 44 35 6 75 13 90 16 16 3 51 8 78 11 28 3 61 8 75 10 137 22 594
21 720 -1 14 -2 48 -7 75 -10 171 -19 381 -67 577 -131 446 -146 841 -378
1203 -708 27 -26 65 -51 82 -57 44 -14 94 3 129 44 23 27 26 38 21 81 -4 45
-10 54 -68 110 -35 34 -91 84 -124 111 -33 28 -62 52 -65 55 -19 21 -295 220
-305 220 -2 0 -36 21 -75 46 -92 59 -326 178 -465 236 -245 102 -594 200 -795
224 -25 3 -52 7 -60 9 -8 3 -42 7 -75 10 -33 4 -76 9 -95 11 -37 6 -536 14
-542 9z"/>
<path d="M3310 6299 c-91 -8 -186 -18 -220 -23 -14 -3 -42 -7 -63 -10 -21 -4
-77 -15 -125 -25 -983 -215 -1788 -955 -2083 -1916 -36 -118 -89 -356 -103
-462 -27 -216 -25 -571 4 -743 5 -30 12 -71 14 -91 8 -65 55 -258 87 -363 107
-346 319 -730 548 -991 190 -216 489 -468 698 -586 410 -233 764 -346 1203
-385 106 -9 341 -11 430 -2 147 14 195 19 215 23 11 2 38 7 60 10 166 23 484
119 650 195 272 125 494 265 705 444 84 72 283 280 360 376 282 354 499 822
565 1220 3 19 8 42 10 50 2 8 7 38 10 65 4 28 8 61 10 75 24 174 23 509 0 690
-4 34 -33 194 -49 277 -14 68 -92 325 -116 378 -5 11 -25 58 -45 105 -230 538
-659 1021 -1170 1317 -302 175 -681 308 -995 349 -30 3 -66 8 -80 10 -132 17
-392 24 -520 13z m490 -254 c19 -3 78 -13 130 -22 251 -41 511 -127 738 -245
101 -53 281 -162 310 -188 9 -8 29 -23 44 -33 44 -28 198 -159 268 -229 302
-299 518 -648 645 -1038 38 -118 89 -336 100 -425 3 -27 10 -79 14 -115 9 -64
7 -481 -2 -530 -3 -14 -8 -50 -12 -80 -22 -178 -100 -457 -178 -640 -313 -730
-963 -1290 -1718 -1479 -236 -59 -352 -73 -609 -75 -275 -1 -352 6 -615 59
-11 3 -73 20 -137 39 -882 259 -1562 979 -1772 1876 -45 195 -59 312 -61 550
-3 248 11 395 61 610 119 515 387 965 795 1333 60 55 283 227 293 227 2 0 32
18 66 40 227 151 630 303 918 346 20 3 47 7 60 9 13 2 53 7 90 11 37 3 69 8
71 10 6 6 463 -4 501 -11z"/>
<path d="M3442 5393 c-68 -33 -65 13 -66 -923 l-1 -845 -561 -1 c-453 -1 -567
-4 -589 -15 -83 -41 -91 -155 -15 -209 l32 -23 642 0 c585 0 645 2 675 17 66
35 63 -8 64 1007 0 941 0 938 -37 975 -37 37 -91 43 -144 17z"/>
<path d="M6202 5530 c-59 -36 -73 -107 -35 -171 31 -53 91 -67 152 -37 84 41
89 159 9 208 -42 25 -84 25 -126 0z"/>
</g>
</svg>
